<svg id="Camada_1" data-name="Camada 1" xmlns="http://www.w3.org/2000/svg" viewBox="0 0 1133.86 1133.86"><defs><style>.cls-1,.cls-2{fill:#fff;}.cls-1,.cls-4{fill-rule:evenodd;}.cls-3,.cls-4{fill:#ea1e89;}</style></defs><title>logo_brecho_fashion_carioca-clara</title><path class="cls-1" d="M408.69,234.77V188.19c0-9-1.41-9,6.73-9,4.6,0,11.05.38,15.42,0a5.93,5.93,0,0,0,4.47-3.37c1.47-3.91-1-7.77,7.61-8.13,3.45-.13,9.07-2,11.29-4.41,6.6-7.31-2.15-5.69-12.69-5.69H410.38c-7.86,0-4.79-3.15-6.56-9.14-1.38-4.65-1.49-6.81-5-10.44a5.86,5.86,0,0,0-3.33-1.75H393.4l-.6.11c-2.36.51-3,2.07-4.39,3.47-1.74,1.72-1.77,2.68-2.55,5.3s-1.32,2.79-1.6,6.24c-.07.85-.17,2.6-.32,3.62-.57,3.83-6,2.58-9.2,2.58-1.9,0-41.06-.37-42.47.17-2.56,1-.9,3.62.59,4.68,3.6,2.6,1.45,1.58,6,3.79a9.78,9.78,0,0,0,1.41.55c4.84,1.47,9.82.47,12,3.43a13.2,13.2,0,0,1,2.67,5.17c.59,2.11,1.7,3.62,4.07,3.79,4.64.36,10.86,0,15.7,0,3.34,0,4.85-.49,5.28,2.6s0,45.75,0,54.35c6-1.55,28.18-2.32,28.62-1.38Zm0,0"/><path class="cls-2" d="M213.87,791a5.63,5.63,0,0,1-5.52-5.7L208,654.18a5.26,5.26,0,0,1,1.78-4.1,5.73,5.73,0,0,1,3.92-1.6h82.68q4.1,0,5,2.14a12.43,12.43,0,0,1,.89,4.81v9.8q0,4.81-1.16,5.88t-6,1.07H231.87v33.5h59.52q5.7,0,5.7,5.7v12.3q0,5.71-5.7,5.7H231.87v54.53a16.09,16.09,0,0,1-.71,4.9Q230.44,791,226,791Z"/><path class="cls-2" d="M428.42,785.34q0,5.7-5.7,5.7H409.89q-2.85,0-3.83-1.34a18.47,18.47,0,0,1-1.87-3.3L388,739.54,344.13,759l-9.8,27.44a17.53,17.53,0,0,1-1.78,3.39q-.89,1.25-4.1,1.25H316.16a6.06,6.06,0,0,1-4-1.6,5.15,5.15,0,0,1-1.87-4.1q0-.18,1.78-5.44t4.72-13.9q2.94-8.64,6.68-19.78t7.75-23q4-11.85,8-23.52t7.4-21.29Q350,668.8,352.42,662t3.3-8.91a15.6,15.6,0,0,1,2-3.3q1.07-1.34,3.74-1.34H377.1q2.67,0,3.65,1.43a27.66,27.66,0,0,1,1.87,3.21L428.24,783.2a7.75,7.75,0,0,1,.18,1.25Zm-49-69.5q-1.6-4.28-2.67-7a38.66,38.66,0,0,1-1.43-4.19,21.7,21.7,0,0,0-.89-2.76,21.26,21.26,0,0,1-.89-2.76q-.89-2.67-1.87-5.7t-2.41-7.13l-14.43,40.45Z"/><path class="cls-2" d="M541.93,746.85a55.49,55.49,0,0,1-1,10.33,59.33,59.33,0,0,1-2.76,9.89,49.76,49.76,0,0,1-4.28,8.73,29.94,29.94,0,0,1-5.52,6.68A36.93,36.93,0,0,1,514,790.24a64,64,0,0,1-17.91,2.41H482.59A43.69,43.69,0,0,1,461,787.21a41.43,41.43,0,0,1-15.5-14.7,29.85,29.85,0,0,1-5-11.58,57.12,57.12,0,0,1-1.16-8.46q-.09-2.94-.09-6v.36a13.63,13.63,0,0,1,.8-4.81q.8-2.14,4.9-2.14h12.12q4.28,0,5.35,4.28a10.35,10.35,0,0,1,.54,2.67v3c0,.48,0,1.1.09,1.87s.15,1.75.27,2.94a18.42,18.42,0,0,0,6.86,10.87,19.49,19.49,0,0,0,12.38,4.28h13.54a24.93,24.93,0,0,0,14.17-4.1,16.41,16.41,0,0,0,7.4-11.23q.17-.89.27-1.78c.06-.59.09-1.19.09-1.78s0-1.34.09-2.23A11,11,0,0,0,518,746a13.21,13.21,0,0,0-.89-2.85,8.12,8.12,0,0,0-1.69-2.5q-3.74-3.21-11.4-5t-17.29-4.1q-8.55-2-17-4.46a66.81,66.81,0,0,1-15.24-6.5,34.33,34.33,0,0,1-11-10.07q-4.19-6.06-4.19-15V693q0-2.85.09-5.79a30.69,30.69,0,0,1,1-6.5l-.18.18a39.37,39.37,0,0,1,5.35-13.72,42.75,42.75,0,0,1,9.62-10.78,45.33,45.33,0,0,1,12.74-7.13,42.36,42.36,0,0,1,14.7-2.58h13.54a43.71,43.71,0,0,1,15.41,2.76A49.23,49.23,0,0,1,525,657a31.29,31.29,0,0,1,9.44,13.45,47.11,47.11,0,0,1,3,19,19.35,19.35,0,0,1-.89,4.81q-.71,2.14-4.81,2.14H520a5,5,0,0,1-4-1.78,6.81,6.81,0,0,1-1.69-3.92q-.36-11.4-5-16.13t-13.19-4.72H482.59a19.55,19.55,0,0,0-12.38,4.46,22.36,22.36,0,0,0-4.46,5,18,18,0,0,0-2.58,6.24v-.18a47.27,47.27,0,0,0-.45,5.88q-.09,3.57,3.3,6.95a16.85,16.85,0,0,0,7.66,4.63l20.49,5.7q8,2.32,13.72,3.83t9.09,2.76a63.27,63.27,0,0,1,6.68,2.76,49.75,49.75,0,0,1,5.79,3.3,28.27,28.27,0,0,1,9,10.16A32.15,32.15,0,0,1,541.93,746.85Z"/><path class="cls-2" d="M584.17,716.55l55.6-23.88V655.43a12.37,12.37,0,0,1,.89-4.81q.89-2.14,5-2.14h11.94a5.85,5.85,0,0,1,4.28,1.78,5.46,5.46,0,0,1,1.78,3.92V785.34a5.46,5.46,0,0,1-1.78,3.92,5.84,5.84,0,0,1-4.28,1.78H645.65q-4.1,0-5-2.14a12.37,12.37,0,0,1-.89-4.81V718.87l-55.6,23.52v41.7a15.21,15.21,0,0,1-.71,4.81q-.71,2.14-5.17,2.14H566.17a4.74,4.74,0,0,1-3.92-1.78,6.12,6.12,0,0,1-1.43-3.92l-.36-131.15a5.74,5.74,0,0,1,1.6-3.92,5.27,5.27,0,0,1,4.1-1.78h12.12q4.45,0,5.17,2.14a15.21,15.21,0,0,1,.71,4.81Z"/><path class="cls-2" d="M709.08,785.34a5.94,5.94,0,0,1-5.88,5.7H691.08a4.74,4.74,0,0,1-3.92-1.78,6.12,6.12,0,0,1-1.43-3.92l-.36-131.15a5.74,5.74,0,0,1,1.6-3.92,5.27,5.27,0,0,1,4.1-1.78H703.2a5.94,5.94,0,0,1,5.88,5.7Z"/><path class="cls-2" d="M853.07,733.48a55.11,55.11,0,0,1-4.9,23.08,59.63,59.63,0,0,1-13.37,18.8A64.71,64.71,0,0,1,766.73,788a64.43,64.43,0,0,1-19.87-12.65,58.9,58.9,0,0,1-13.45-18.8,55.08,55.08,0,0,1-4.9-23.08v-28a54.27,54.27,0,0,1,5-23.08,59.73,59.73,0,0,1,13.45-18.71,64.64,64.64,0,0,1,44.1-17.2,63.12,63.12,0,0,1,24.15,4.63A64.28,64.28,0,0,1,835,663.72a57.47,57.47,0,0,1,13.28,18.71,56,56,0,0,1,4.81,23.08ZM829,705.5a33.33,33.33,0,0,0-3-14.08A37.83,37.83,0,0,0,805.67,672a38.64,38.64,0,0,0-14.79-2.85A38.21,38.21,0,0,0,776,672.09a39.88,39.88,0,0,0-12.21,7.84,36.93,36.93,0,0,0-8.2,11.49,33.29,33.29,0,0,0-3,14.08v28a33.28,33.28,0,0,0,3,14.08A37.6,37.6,0,0,0,776,767a39.23,39.23,0,0,0,14.88,2.85A38.58,38.58,0,0,0,805.67,767,37.83,37.83,0,0,0,826,747.56a33.32,33.32,0,0,0,3-14.08Z"/><path class="cls-2" d="M981.19,785.34a5.94,5.94,0,0,1-5.88,5.7H963.19a5.41,5.41,0,0,1-5-2.67q-8-11.94-15.59-23.25t-15.15-22.45q-7.58-11.14-15.24-22.54t-15.86-23.52v88.74a5.94,5.94,0,0,1-5.88,5.7h-12.3a4.74,4.74,0,0,1-3.92-1.78,6.12,6.12,0,0,1-1.43-3.92l-.36-131.15a5.74,5.74,0,0,1,1.6-3.92,5.27,5.27,0,0,1,4.1-1.78h13.19a5.2,5.2,0,0,1,4.81,2.85v-.18l61.12,92V654.18a5.94,5.94,0,0,1,5.88-5.7h12.12a5.94,5.94,0,0,1,5.88,5.7Z"/><path class="cls-2" d="M262.19,799.22a55,55,0,0,1,19.4,3.39,53.38,53.38,0,0,1,16.18,9.49,56.58,56.58,0,0,1,12,14.48,59.71,59.71,0,0,1,6.95,18.21c0,.11,0,.4-.08.85s-.08.74-.08.85a10.8,10.8,0,0,1-1.69,3.3,4.13,4.13,0,0,1-3.56,1.61H300a4.72,4.72,0,0,1-3.3-1,9.23,9.23,0,0,1-1.95-2.71q-1.36-3.9-2.54-7.11a23.34,23.34,0,0,0-3.39-6.1,31.53,31.53,0,0,0-11.52-9.74,33.26,33.26,0,0,0-15.08-3.47,31.61,31.61,0,0,0-12.79,2.63,33.35,33.35,0,0,0-17.62,17.7,32.18,32.18,0,0,0-2.63,12.87v29.47a32,32,0,0,0,2.63,13,33.59,33.59,0,0,0,17.62,17.62,31.57,31.57,0,0,0,12.79,2.63,32.6,32.6,0,0,0,15.08-3.56,34.68,34.68,0,0,0,11.86-10,26.8,26.8,0,0,0,3.81-6.86,70.05,70.05,0,0,0,2.29-7.71l-.17.34q.68-4.57,5.25-4.57h11.35a5,5,0,0,1,3.9,1.69,5.46,5.46,0,0,1,1.52,3.73,22.73,22.73,0,0,1-.68,5.34,51.71,51.71,0,0,1-1.52,5.17,54.51,54.51,0,0,1-8.21,15.08,61.31,61.31,0,0,1-12.37,12.11,58,58,0,0,1-15.25,8,50.63,50.63,0,0,1-16.85,2.88,53.21,53.21,0,0,1-21.34-4.32,56.58,56.58,0,0,1-17.53-11.77,54.86,54.86,0,0,1-11.86-17.45,53.21,53.21,0,0,1-4.32-21.34V854.44A53.82,53.82,0,0,1,211.46,833a54.67,54.67,0,0,1,11.86-17.53,57.89,57.89,0,0,1,17.53-11.86A52.36,52.36,0,0,1,262.19,799.22Z"/><path class="cls-2" d="M439.87,931.51q0,5.42-5.42,5.42h-12.2q-2.71,0-3.64-1.27a17.48,17.48,0,0,1-1.78-3.13L401.42,888l-41.67,18.46-9.32,26.08a16.75,16.75,0,0,1-1.69,3.22q-.85,1.19-3.9,1.19H333.16a5.76,5.76,0,0,1-3.81-1.52,4.9,4.9,0,0,1-1.78-3.9q0-.17,1.69-5.17t4.49-13.21q2.79-8.21,6.35-18.8t7.37-21.85q3.81-11.26,7.62-22.36t7-20.24q3.22-9.15,5.51-15.58t3.13-8.47a14.87,14.87,0,0,1,1.86-3.13,4.32,4.32,0,0,1,3.56-1.27h14.91q2.54,0,3.47,1.36a26.32,26.32,0,0,1,1.78,3l43.36,123.65a7.54,7.54,0,0,1,.17,1.19Zm-46.58-66.06q-1.53-4.06-2.54-6.69a36.52,36.52,0,0,1-1.36-4,20.7,20.7,0,0,0-.85-2.63,20.18,20.18,0,0,1-.85-2.62q-.85-2.54-1.78-5.42t-2.29-6.78l-13.72,38.45Z"/><path class="cls-3" d="M518,801.42a25.91,25.91,0,0,1,10.93,2.37,30.45,30.45,0,0,1,15.33,15.41,26.47,26.47,0,0,1,2.37,11q0,9.65-4.66,15.84A49.14,49.14,0,0,1,530,857.15q2.71,7.11,5.25,13.89t5.08,13.89q4.06,11.18,8.3,22.44T557.26,930q1.35,3.39-.25,5.17a6.42,6.42,0,0,1-5,1.78H539.13q-2.71,0-3.73-1.27a11.54,11.54,0,0,1-1.69-3l-24.39-64.54q-8.81,4.57-16.94,9t-17.28,9.15v44a13,13,0,0,1-.76,4.57q-.76,2-4.66,2h-12a4.75,4.75,0,0,1-3.81-1.69,5.62,5.62,0,0,1-1.44-3.73l-.34-124.67a5.65,5.65,0,0,1,5.59-5.42Zm-42.85,22.53v36.93q3.39-1.69,7.88-3.9t9.49-4.83q5-2.62,9.91-5.25t9-5.08q4.07-2.45,7-4.57a14.93,14.93,0,0,0,3.81-3.47v.17a6.62,6.62,0,0,0-.85-8.13,6.43,6.43,0,0,0-4.74-1.86Z"/><path class="cls-3" d="M593.17,931.51a5.65,5.65,0,0,1-5.59,5.42H576.06a4.5,4.5,0,0,1-3.73-1.69,5.81,5.81,0,0,1-1.35-3.73l-.34-124.67a5.45,5.45,0,0,1,1.52-3.73,5,5,0,0,1,3.9-1.69h11.52a5.65,5.65,0,0,1,5.59,5.42Z"/><path class="cls-3" d="M730,882.22a52.39,52.39,0,0,1-4.66,21.94A56.69,56.69,0,0,1,712.67,922,61.51,61.51,0,0,1,648,934a61.24,61.24,0,0,1-18.89-12,56,56,0,0,1-12.79-17.87,52.35,52.35,0,0,1-4.66-21.94V855.62a51.59,51.59,0,0,1,4.74-21.94,56.8,56.8,0,0,1,12.79-17.79,61.44,61.44,0,0,1,41.92-16.35,60,60,0,0,1,23,4.4,61.1,61.1,0,0,1,18.8,11.94,54.63,54.63,0,0,1,12.62,17.79A53.2,53.2,0,0,1,730,855.62Zm-22.87-26.59a31.69,31.69,0,0,0-2.88-13.38A36,36,0,0,0,685,823.78a36.71,36.71,0,0,0-14.06-2.71,36.31,36.31,0,0,0-14.14,2.79,37.87,37.87,0,0,0-11.6,7.45,35.09,35.09,0,0,0-7.79,10.92,31.65,31.65,0,0,0-2.88,13.38v26.59a31.65,31.65,0,0,0,2.88,13.38,35.74,35.74,0,0,0,19.4,18.46,37.28,37.28,0,0,0,14.14,2.71A36.66,36.66,0,0,0,685,914.06a36,36,0,0,0,19.31-18.46,31.68,31.68,0,0,0,2.88-13.38Z"/><path class="cls-2" d="M803,799.22a55,55,0,0,1,19.39,3.39,53.39,53.39,0,0,1,16.18,9.49,56.58,56.58,0,0,1,12,14.48,59.71,59.71,0,0,1,6.95,18.21c0,.11,0,.4-.08.85s-.08.74-.08.85a10.85,10.85,0,0,1-1.69,3.3,4.13,4.13,0,0,1-3.56,1.61H840.81a4.72,4.72,0,0,1-3.3-1,9.23,9.23,0,0,1-1.95-2.71q-1.36-3.9-2.54-7.11a23.34,23.34,0,0,0-3.39-6.1,31.53,31.53,0,0,0-11.52-9.74A33.26,33.26,0,0,0,803,821.24a31.61,31.61,0,0,0-12.79,2.63,33.35,33.35,0,0,0-17.62,17.7A32.17,32.17,0,0,0,770,854.44v29.47a32,32,0,0,0,2.63,13,33.59,33.59,0,0,0,17.62,17.62A31.57,31.57,0,0,0,803,917.11a32.59,32.59,0,0,0,15.08-3.56,34.69,34.69,0,0,0,11.86-10,26.83,26.83,0,0,0,3.81-6.86,70.06,70.06,0,0,0,2.29-7.71l-.17.34q.68-4.57,5.25-4.57h11.35a5,5,0,0,1,3.9,1.69,5.46,5.46,0,0,1,1.53,3.73,22.78,22.78,0,0,1-.68,5.34,52,52,0,0,1-1.52,5.17,54.48,54.48,0,0,1-8.22,15.08,61.28,61.28,0,0,1-12.37,12.11,57.94,57.94,0,0,1-15.24,8A50.63,50.63,0,0,1,803,938.79a53.21,53.21,0,0,1-21.34-4.32,56.58,56.58,0,0,1-17.53-11.77,54.86,54.86,0,0,1-11.86-17.45A53.22,53.22,0,0,1,748,883.91V854.44A53.84,53.84,0,0,1,752.3,833a54.68,54.68,0,0,1,11.86-17.53,57.89,57.89,0,0,1,17.53-11.86A52.36,52.36,0,0,1,803,799.22Z"/><path class="cls-2" d="M980.72,931.51q0,5.42-5.42,5.42H963.1q-2.71,0-3.64-1.27a17.48,17.48,0,0,1-1.78-3.13L942.27,888,900.6,906.44l-9.32,26.08a16.75,16.75,0,0,1-1.69,3.22q-.85,1.19-3.9,1.19H874a5.76,5.76,0,0,1-3.81-1.52,4.9,4.9,0,0,1-1.78-3.9q0-.17,1.69-5.17t4.49-13.21q2.79-8.21,6.35-18.8t7.37-21.85q3.81-11.26,7.62-22.36t7-20.24q3.22-9.15,5.5-15.58t3.13-8.47a14.78,14.78,0,0,1,1.86-3.13,4.32,4.32,0,0,1,3.56-1.27h14.91q2.54,0,3.47,1.36a26.32,26.32,0,0,1,1.78,3l43.36,123.65a7.46,7.46,0,0,1,.17,1.19Zm-46.58-66.06q-1.52-4.06-2.54-6.69a36.73,36.73,0,0,1-1.36-4,20.7,20.7,0,0,0-.85-2.63,20,20,0,0,1-.85-2.62q-.85-2.54-1.78-5.42t-2.29-6.78l-13.72,38.45Z"/><path class="cls-2" d="M230.68,987.29a9.84,9.84,0,0,1-.87,4.12,10.65,10.65,0,0,1-2.39,3.36A11.55,11.55,0,0,1,215.26,997a11.5,11.5,0,0,1-3.55-2.26,10.51,10.51,0,0,1-2.4-3.36,9.83,9.83,0,0,1-.87-4.12v-5a9.69,9.69,0,0,1,.89-4.12,10.67,10.67,0,0,1,2.4-3.34,11.54,11.54,0,0,1,7.87-3.07,11.28,11.28,0,0,1,4.31.83,11.48,11.48,0,0,1,3.53,2.24,10.26,10.26,0,0,1,2.37,3.34,10,10,0,0,1,.86,4.12Zm-4.29-5a6,6,0,0,0-.54-2.51,6.76,6.76,0,0,0-3.63-3.47,6.9,6.9,0,0,0-2.64-.51,6.83,6.83,0,0,0-2.66.52,7.12,7.12,0,0,0-2.18,1.4,6.57,6.57,0,0,0-1.46,2.05,5.94,5.94,0,0,0-.54,2.51v5a5.94,5.94,0,0,0,.54,2.51,6.72,6.72,0,0,0,3.64,3.47,7,7,0,0,0,2.66.51,6.9,6.9,0,0,0,2.64-.51,6.76,6.76,0,0,0,3.63-3.47,6,6,0,0,0,.54-2.51Z"/><path class="cls-2" d="M266.19,972.12l.52,0a1.74,1.74,0,0,1,.57.13,1,1,0,0,1,.46.4,1.42,1.42,0,0,1,.19.8v23.19q0,.7-.33.81a2.47,2.47,0,0,1-.78.11h-1.88a1,1,0,0,1-1.27-1.27v-16.7l-3.26,4.14q-1.61,2-3.33,4.07l0-.06a.94.94,0,0,1-.41.41,1.8,1.8,0,0,1-.54.06h-1.24a1.3,1.3,0,0,1-.6-.1,1.82,1.82,0,0,1-.41-.41l-6.52-8.11v16.7a1,1,0,0,1-1.27,1.27h-1.88a1.63,1.63,0,0,1-.75-.1q-.3-.13-.3-.76l-.06-23.29a1.2,1.2,0,0,1,.21-.75,1.23,1.23,0,0,1,.51-.4,1.82,1.82,0,0,1,.62-.14l.51,0h1.14a2.53,2.53,0,0,1,.75.09,1.26,1.26,0,0,1,.59.48l8.11,10.18,8.15-10.28a1.5,1.5,0,0,1,1.24-.48Z"/><path class="cls-2" d="M291.42,996.55a.9.9,0,0,1-1,1h-2.29a.8.8,0,0,1-.68-.24,3.32,3.32,0,0,1-.33-.59l-2.89-8.37-7.83,3.47-1.75,4.9a3.17,3.17,0,0,1-.32.6q-.16.22-.73.22h-2.2a1.09,1.09,0,0,1-.72-.29.92.92,0,0,1-.33-.73s.11-.34.32-1l.84-2.48,1.19-3.53,1.38-4.1q.72-2.12,1.43-4.2t1.32-3.8l1-2.93q.43-1.21.59-1.59a2.77,2.77,0,0,1,.35-.59.81.81,0,0,1,.67-.24h2.8a.74.74,0,0,1,.65.25,5,5,0,0,1,.33.57l8.15,23.23a1.38,1.38,0,0,1,0,.22Zm-8.75-12.41-.48-1.26a6.9,6.9,0,0,1-.25-.75,4,4,0,0,0-.16-.49,3.77,3.77,0,0,1-.16-.49l-.33-1q-.18-.54-.43-1.27l-2.58,7.22Z"/><path class="cls-2" d="M298,996.55a1.06,1.06,0,0,1-1,1h-2.16a.85.85,0,0,1-.7-.32,1.09,1.09,0,0,1-.25-.7l-.06-23.42a1,1,0,0,1,.29-.7.94.94,0,0,1,.73-.32h2.16a1.06,1.06,0,0,1,1,1Z"/><path class="cls-2" d="M323.68,987.29a9.84,9.84,0,0,1-.87,4.12,10.65,10.65,0,0,1-2.39,3.36A11.55,11.55,0,0,1,308.26,997a11.5,11.5,0,0,1-3.55-2.26,10.51,10.51,0,0,1-2.4-3.36,9.83,9.83,0,0,1-.87-4.12v-5a9.69,9.69,0,0,1,.89-4.12,10.67,10.67,0,0,1,2.4-3.34,11.54,11.54,0,0,1,7.87-3.07,11.28,11.28,0,0,1,4.31.83,11.48,11.48,0,0,1,3.53,2.24,10.26,10.26,0,0,1,2.37,3.34,10,10,0,0,1,.86,4.12Zm-4.29-5a6,6,0,0,0-.54-2.51,6.76,6.76,0,0,0-3.63-3.47,6.9,6.9,0,0,0-2.64-.51,6.83,6.83,0,0,0-2.66.52,7.12,7.12,0,0,0-2.18,1.4,6.57,6.57,0,0,0-1.46,2.05,5.94,5.94,0,0,0-.54,2.51v5a5.94,5.94,0,0,0,.54,2.51,6.72,6.72,0,0,0,3.64,3.47,7,7,0,0,0,2.66.51,6.9,6.9,0,0,0,2.64-.51,6.76,6.76,0,0,0,3.63-3.47,6,6,0,0,0,.54-2.51Z"/><path class="cls-2" d="M339.49,972.12a4.86,4.86,0,0,1,2.05.45,5.83,5.83,0,0,1,1.7,1.18,5.77,5.77,0,0,1,1.18,1.72,5,5,0,0,1,.45,2.07,4.81,4.81,0,0,1-.87,3,9.25,9.25,0,0,1-2.24,2.08l1,2.61q.48,1.27,1,2.61.76,2.1,1.56,4.22t1.62,4.25a.88.88,0,0,1,0,1,1.21,1.21,0,0,1-.94.33h-2.42a.86.86,0,0,1-.7-.24,2.17,2.17,0,0,1-.32-.56l-4.58-12.12q-1.65.86-3.18,1.69t-3.25,1.72v8.27a2.45,2.45,0,0,1-.14.86q-.14.38-.87.38h-2.26a.89.89,0,0,1-.72-.32,1.06,1.06,0,0,1-.27-.7l-.06-23.42a1.06,1.06,0,0,1,1-1Zm-8,4.23v6.94l1.48-.73q.84-.41,1.78-.91l1.86-1q.92-.49,1.69-1t1.32-.86a2.79,2.79,0,0,0,.72-.65v0a1.24,1.24,0,0,0-.16-1.53,1.21,1.21,0,0,0-.89-.35Z"/><path class="cls-2" d="M359.4,997.57a1,1,0,0,1-1-1l-.06-23.42a.94.94,0,0,1,.32-.73,1.1,1.1,0,0,1,.76-.29h15.37c.53,0,.84.13.92.38a2.73,2.73,0,0,1,.13.86v1.75q0,.86-.22,1a1.82,1.82,0,0,1-1,.19H362.62V982h10.59a1,1,0,0,1,.73.3,1,1,0,0,1,.29.75v2.16a1,1,0,0,1-.29.75,1,1,0,0,1-.73.3H362.62v7.09H375a1.83,1.83,0,0,1,1,.19q.22.19.22,1.05v1.72a2.89,2.89,0,0,1-.13.88q-.13.4-.92.4Z"/><path class="cls-2" d="M411.52,972.12l.53,0a1.74,1.74,0,0,1,.57.13,1,1,0,0,1,.46.4,1.42,1.42,0,0,1,.19.8v23.19q0,.7-.33.81a2.47,2.47,0,0,1-.78.11h-1.88A1,1,0,0,1,409,996.3v-16.7l-3.26,4.14q-1.61,2-3.33,4.07l0-.06a.94.94,0,0,1-.41.41,1.8,1.8,0,0,1-.54.06h-1.24a1.3,1.3,0,0,1-.6-.1,1.8,1.8,0,0,1-.41-.41l-6.52-8.11v16.7a1,1,0,0,1-1.27,1.27h-1.88a1.63,1.63,0,0,1-.75-.1q-.3-.13-.3-.76l-.06-23.29a1.2,1.2,0,0,1,.21-.75,1.23,1.23,0,0,1,.51-.4,1.82,1.82,0,0,1,.62-.14l.51,0h1.15a2.52,2.52,0,0,1,.75.09,1.26,1.26,0,0,1,.59.48l8.11,10.18L409,972.59a1.5,1.5,0,0,1,1.24-.48Z"/><path class="cls-2" d="M436.75,996.55a.9.9,0,0,1-1,1h-2.29a.81.81,0,0,1-.68-.24,3.38,3.38,0,0,1-.33-.59l-2.9-8.37-7.83,3.47-1.75,4.9a3.11,3.11,0,0,1-.32.6c-.11.15-.35.22-.73.22h-2.2a1.08,1.08,0,0,1-.72-.29.92.92,0,0,1-.33-.73s.11-.34.32-1l.84-2.48,1.19-3.53,1.38-4.1q.72-2.12,1.43-4.2t1.32-3.8l1-2.93q.43-1.21.59-1.59a2.77,2.77,0,0,1,.35-.59.81.81,0,0,1,.67-.24h2.8a.74.74,0,0,1,.65.25,5,5,0,0,1,.33.57l8.14,23.23a1.31,1.31,0,0,1,0,.22ZM428,984.14l-.48-1.26a7.19,7.19,0,0,1-.25-.75,3.68,3.68,0,0,0-.16-.49,3.77,3.77,0,0,1-.16-.49l-.33-1q-.17-.54-.43-1.27l-2.58,7.22Z"/><path class="cls-2" d="M443.3,996.55a1.06,1.06,0,0,1-1,1h-2.16a.84.84,0,0,1-.7-.32,1.09,1.09,0,0,1-.25-.7l-.06-23.42a1,1,0,0,1,.29-.7.94.94,0,0,1,.73-.32h2.16a1.06,1.06,0,0,1,1,1Z"/><path class="cls-2" d="M465.13,989.68a9.92,9.92,0,0,1-.17,1.85,10.62,10.62,0,0,1-.49,1.77,8.89,8.89,0,0,1-.76,1.56,5.36,5.36,0,0,1-1,1.19,6.59,6.59,0,0,1-2.56,1.38,11.39,11.39,0,0,1-3.2.43h-2.42a7.81,7.81,0,0,1-3.85-1,7.41,7.41,0,0,1-2.77-2.62,5.34,5.34,0,0,1-.89-2.07,10.15,10.15,0,0,1-.21-1.51c0-.35,0-.71,0-1.07v.06a2.42,2.42,0,0,1,.14-.86q.14-.38.88-.38H450a.9.9,0,0,1,1,.76,1.84,1.84,0,0,1,.09.48v.54c0,.08,0,.2,0,.33s0,.31,0,.53a3.29,3.29,0,0,0,1.23,1.94,3.48,3.48,0,0,0,2.21.76h2.42a4.45,4.45,0,0,0,2.53-.73,2.93,2.93,0,0,0,1.32-2c0-.11,0-.21,0-.32a3.13,3.13,0,0,0,0-.32c0-.11,0-.24,0-.4a2,2,0,0,0,0-.49,2.39,2.39,0,0,0-.16-.51,1.45,1.45,0,0,0-.3-.45,4.81,4.81,0,0,0-2-.89l-3.09-.73q-1.53-.35-3-.8A11.94,11.94,0,0,1,449.5,985a6.14,6.14,0,0,1-2-1.8,4.58,4.58,0,0,1-.75-2.67v-.45c0-.34,0-.68,0-1a5.44,5.44,0,0,1,.17-1.16l0,0a7,7,0,0,1,1-2.45,7.64,7.64,0,0,1,1.72-1.92,8.12,8.12,0,0,1,2.27-1.27,7.58,7.58,0,0,1,2.63-.46h2.42a7.79,7.79,0,0,1,2.75.49,8.8,8.8,0,0,1,2.4,1.35,5.59,5.59,0,0,1,1.69,2.4,8.41,8.41,0,0,1,.54,3.39,3.43,3.43,0,0,1-.16.86q-.13.38-.86.38h-2.1a.89.89,0,0,1-.72-.32,1.21,1.21,0,0,1-.3-.7,4.25,4.25,0,0,0-.89-2.88,3.15,3.15,0,0,0-2.35-.84h-2.42a3.49,3.49,0,0,0-2.21.8,4,4,0,0,0-.8.89,3.21,3.21,0,0,0-.46,1.11v0a8.41,8.41,0,0,0-.08,1,1.7,1.7,0,0,0,.59,1.24,3,3,0,0,0,1.37.83l3.66,1,2.45.68q1,.27,1.62.49a11.32,11.32,0,0,1,1.19.49,8.79,8.79,0,0,1,1,.59,5.05,5.05,0,0,1,1.61,1.81A5.75,5.75,0,0,1,465.13,989.68Z"/><path class="cls-2" d="M487.65,971.7a10.31,10.31,0,0,1,3.64.64,10,10,0,0,1,3,1.78,10.61,10.61,0,0,1,2.26,2.72,11.19,11.19,0,0,1,1.3,3.42s0,.07,0,.16,0,.14,0,.16a2,2,0,0,1-.32.62.77.77,0,0,1-.67.3h-2.13a.89.89,0,0,1-.62-.19,1.72,1.72,0,0,1-.37-.51q-.25-.73-.48-1.34a4.37,4.37,0,0,0-.64-1.14,5.92,5.92,0,0,0-2.16-1.83,6.25,6.25,0,0,0-2.83-.65,6,6,0,0,0-2.4.49,6.35,6.35,0,0,0-2,1.34,6.28,6.28,0,0,0-1.34,2,6,6,0,0,0-.49,2.42v5.54a6,6,0,0,0,.49,2.43,6.3,6.3,0,0,0,3.31,3.31,5.93,5.93,0,0,0,2.4.49,6.12,6.12,0,0,0,2.83-.67,6.5,6.5,0,0,0,2.23-1.88,5,5,0,0,0,.72-1.29,13.21,13.21,0,0,0,.43-1.45l0,.06a.9.9,0,0,1,1-.86h2.13a.94.94,0,0,1,.73.32,1,1,0,0,1,.29.7,4.24,4.24,0,0,1-.13,1,9.79,9.79,0,0,1-.29,1,10.25,10.25,0,0,1-1.54,2.83,11.52,11.52,0,0,1-2.32,2.27,10.89,10.89,0,0,1-2.86,1.51,9.51,9.51,0,0,1-3.17.54,10,10,0,0,1-4-.81,10.63,10.63,0,0,1-3.29-2.21,10.3,10.3,0,0,1-2.23-3.28,10,10,0,0,1-.81-4v-5.54a10.1,10.1,0,0,1,.81-4,10.27,10.27,0,0,1,2.23-3.29,10.86,10.86,0,0,1,3.29-2.23A9.84,9.84,0,0,1,487.65,971.7Z"/><path class="cls-2" d="M523.25,987.29a9.84,9.84,0,0,1-.87,4.12,10.66,10.66,0,0,1-2.39,3.36A11.55,11.55,0,0,1,507.84,997a11.5,11.5,0,0,1-3.55-2.26,10.52,10.52,0,0,1-2.4-3.36,9.83,9.83,0,0,1-.87-4.12v-5a9.69,9.69,0,0,1,.89-4.12,10.67,10.67,0,0,1,2.4-3.34,11.54,11.54,0,0,1,7.87-3.07,11.27,11.27,0,0,1,4.31.83,11.49,11.49,0,0,1,3.53,2.24,10.28,10.28,0,0,1,2.37,3.34,10,10,0,0,1,.86,4.12Zm-4.3-5a5.94,5.94,0,0,0-.54-2.51,6.75,6.75,0,0,0-3.63-3.47,6.9,6.9,0,0,0-2.64-.51,6.83,6.83,0,0,0-2.66.52,7.14,7.14,0,0,0-2.18,1.4,6.59,6.59,0,0,0-1.46,2.05,5.94,5.94,0,0,0-.54,2.51v5a5.94,5.94,0,0,0,.54,2.51,6.71,6.71,0,0,0,3.64,3.47,7,7,0,0,0,2.66.51,6.9,6.9,0,0,0,2.64-.51,6.75,6.75,0,0,0,3.63-3.47,5.94,5.94,0,0,0,.54-2.51Z"/><path class="cls-2" d="M549.79,972.12l.53,0a1.74,1.74,0,0,1,.57.13,1,1,0,0,1,.46.4,1.42,1.42,0,0,1,.19.8v23.19q0,.7-.33.81a2.47,2.47,0,0,1-.78.11h-1.88a1,1,0,0,1-1.27-1.27v-16.7L544,983.73q-1.61,2-3.33,4.07l0-.06a.94.94,0,0,1-.41.41,1.8,1.8,0,0,1-.54.06h-1.24a1.3,1.3,0,0,1-.6-.1,1.8,1.8,0,0,1-.41-.41L531,979.59v16.7a1,1,0,0,1-1.27,1.27h-1.88a1.63,1.63,0,0,1-.75-.1q-.3-.13-.3-.76l-.06-23.29a1.2,1.2,0,0,1,.21-.75,1.23,1.23,0,0,1,.51-.4,1.82,1.82,0,0,1,.62-.14l.51,0h1.15a2.52,2.52,0,0,1,.75.09,1.26,1.26,0,0,1,.59.48l8.11,10.18,8.14-10.28a1.5,1.5,0,0,1,1.24-.48Z"/><path class="cls-2" d="M570.44,983,569,984q-.6.4-1,.65l-8.33,4.61v7.09a2.43,2.43,0,0,1-.14.86q-.14.38-.87.38h-2.16a.89.89,0,0,1-.72-.32,1.05,1.05,0,0,1-.27-.7l-.06-23.42a1.06,1.06,0,0,1,1-1h10.69a6.35,6.35,0,0,1,2.93.62,5.25,5.25,0,0,1,2.88,3.79,6.7,6.7,0,0,1-.81,4.72A5.4,5.4,0,0,1,570.44,983Zm-10.82-6.68v8.11l2.58-1.38q1.37-.75,2.58-1.48l.75-.45q.46-.29.92-.6c.31-.21.59-.42.84-.62a2.5,2.5,0,0,0,.51-.49,2.55,2.55,0,0,0,.38-2,1.21,1.21,0,0,0-1.27-1Z"/><path class="cls-2" d="M577,997.57q-1,0-1-1L576,973.13a.9.9,0,0,1,1-1h2.2q.73,0,.88.38a2.44,2.44,0,0,1,.14.86v20H590.8a.94.94,0,0,1,1.24,1.24v1.72a2.56,2.56,0,0,1-.14.88q-.14.4-.87.4Z"/><path class="cls-2" d="M596.24,997.57a1,1,0,0,1-1-1l-.06-23.42a.94.94,0,0,1,.32-.73,1.1,1.1,0,0,1,.76-.29H611.6q.8,0,.92.38a2.73,2.73,0,0,1,.13.86v1.75q0,.86-.22,1a1.83,1.83,0,0,1-1,.19H599.45V982H610a1,1,0,0,1,.73.3,1,1,0,0,1,.29.75v2.16a1,1,0,0,1-.29.75,1,1,0,0,1-.73.3H599.45v7.09h12.34a1.84,1.84,0,0,1,1,.19c.15.13.22.48.22,1.05v1.72a2.86,2.86,0,0,1-.13.88q-.13.4-.92.4Z"/><path class="cls-2" d="M626.75,976.22v20.11a2.45,2.45,0,0,1-.14.86q-.14.38-.87.38h-2.2q-.73,0-.87-.38a2.43,2.43,0,0,1-.14-.86V976.22h-6.17a1.53,1.53,0,0,1-1-.24,1.55,1.55,0,0,1-.22-1v-1.62a2.42,2.42,0,0,1,.14-.86q.14-.38.88-.38h17q.73,0,.89.38a2.22,2.22,0,0,1,.16.86V975a1.65,1.65,0,0,1-.21,1q-.21.24-1,.24Z"/><path class="cls-2" d="M658.5,987.29a9.84,9.84,0,0,1-.87,4.12,10.66,10.66,0,0,1-2.39,3.36A11.55,11.55,0,0,1,643.08,997a11.5,11.5,0,0,1-3.55-2.26,10.52,10.52,0,0,1-2.4-3.36,9.83,9.83,0,0,1-.87-4.12v-5a9.69,9.69,0,0,1,.89-4.12,10.67,10.67,0,0,1,2.4-3.34,11.54,11.54,0,0,1,7.87-3.07,11.27,11.27,0,0,1,4.31.83,11.49,11.49,0,0,1,3.53,2.24,10.28,10.28,0,0,1,2.37,3.34,10,10,0,0,1,.86,4.12Zm-4.3-5a5.94,5.94,0,0,0-.54-2.51,6.75,6.75,0,0,0-3.63-3.47,6.9,6.9,0,0,0-2.64-.51,6.83,6.83,0,0,0-2.66.52,7.14,7.14,0,0,0-2.18,1.4,6.59,6.59,0,0,0-1.46,2.05,5.94,5.94,0,0,0-.54,2.51v5a5.94,5.94,0,0,0,.54,2.51,6.71,6.71,0,0,0,3.64,3.47,7,7,0,0,0,2.66.51,6.9,6.9,0,0,0,2.64-.51,6.75,6.75,0,0,0,3.63-3.47,5.94,5.94,0,0,0,.54-2.51Z"/><path class="cls-2" d="M689.55,990.67a6.73,6.73,0,0,1-.54,2.69,6.92,6.92,0,0,1-3.67,3.67,6.71,6.71,0,0,1-2.69.54H672a.89.89,0,0,1-.72-.32,1.05,1.05,0,0,1-.27-.7l-.06-23.42a1,1,0,0,1,.3-.73,1,1,0,0,1,.75-.29h10.44a5.21,5.21,0,0,1,2.1.43,5.34,5.34,0,0,1,1.7,1.16,5.46,5.46,0,0,1,1.54,3.82,5.24,5.24,0,0,1-.57,2.64,6.2,6.2,0,0,1-2.55,2.07,6.25,6.25,0,0,1,3.77,1.84,5.94,5.94,0,0,1,1.16,3.95Zm-14.41-7.32,2.23-1.18q1.31-.7,2.55-1.43t2.19-1.38a4.63,4.63,0,0,0,1.18-1,1.49,1.49,0,0,0,.19-.83,1.23,1.23,0,0,0-.3-.83,1,1,0,0,0-.78-.35h-7.25Zm0,4.58v5.41h7.51a2.6,2.6,0,0,0,1.91-.8l.32-.38a1.68,1.68,0,0,0,.43-.92c0-.32,0-.51,0-.57s0-.33,0-.48,0-.31,0-.48,0-.3,0-.45,0-.3,0-.45a3.18,3.18,0,0,0-.7-2.37,2.27,2.27,0,0,0-1.59-.65h-4.07Z"/><path class="cls-2" d="M705.68,972.12a4.86,4.86,0,0,1,2.05.45,5.72,5.72,0,0,1,2.88,2.89,5,5,0,0,1,.45,2.07,4.81,4.81,0,0,1-.87,3,9.23,9.23,0,0,1-2.24,2.08l1,2.61q.48,1.27,1,2.61.76,2.1,1.56,4.22t1.62,4.25a.88.88,0,0,1,0,1,1.2,1.2,0,0,1-.94.33h-2.42a.85.85,0,0,1-.7-.24,2.14,2.14,0,0,1-.32-.56l-4.58-12.12q-1.65.86-3.18,1.69t-3.25,1.72v8.27a2.45,2.45,0,0,1-.14.86q-.14.38-.87.38h-2.26a.89.89,0,0,1-.72-.32,1.05,1.05,0,0,1-.27-.7l-.06-23.42a1.06,1.06,0,0,1,1-1Zm-8,4.23v6.94l1.48-.73q.84-.41,1.78-.91l1.86-1q.92-.49,1.69-1t1.32-.86a2.79,2.79,0,0,0,.72-.65v0a1.24,1.24,0,0,0-.16-1.53,1.21,1.21,0,0,0-.89-.35Z"/><path class="cls-2" d="M716.63,997.57a1,1,0,0,1-1-1l-.06-23.42a.94.94,0,0,1,.32-.73,1.1,1.1,0,0,1,.76-.29H732q.8,0,.92.38a2.73,2.73,0,0,1,.13.86v1.75q0,.86-.22,1a1.83,1.83,0,0,1-1,.19H719.84V982h10.59a1,1,0,0,1,.73.3,1,1,0,0,1,.29.75v2.16a1,1,0,0,1-.29.75,1,1,0,0,1-.73.3H719.84v7.09h12.34a1.84,1.84,0,0,1,1,.19c.15.13.22.48.22,1.05v1.72a2.86,2.86,0,0,1-.13.88q-.13.4-.92.4Z"/><path class="cls-2" d="M746.95,971.7a10.31,10.31,0,0,1,3.64.64,10,10,0,0,1,3,1.78,10.61,10.61,0,0,1,2.26,2.72,11.19,11.19,0,0,1,1.3,3.42s0,.07,0,.16,0,.14,0,.16a2,2,0,0,1-.32.62.77.77,0,0,1-.67.3H754a.89.89,0,0,1-.62-.19,1.72,1.72,0,0,1-.37-.51q-.25-.73-.48-1.34a4.37,4.37,0,0,0-.64-1.14,5.92,5.92,0,0,0-2.16-1.83,6.25,6.25,0,0,0-2.83-.65,6,6,0,0,0-2.4.49,6.35,6.35,0,0,0-2,1.34,6.28,6.28,0,0,0-1.34,2,6,6,0,0,0-.49,2.42v5.54a6,6,0,0,0,.49,2.43,6.3,6.3,0,0,0,3.31,3.31,5.93,5.93,0,0,0,2.4.49,6.12,6.12,0,0,0,2.83-.67A6.5,6.5,0,0,0,752,991.3a5,5,0,0,0,.72-1.29,13.21,13.21,0,0,0,.43-1.45l0,.06a.9.9,0,0,1,1-.86h2.13a.94.94,0,0,1,.73.32,1,1,0,0,1,.29.7,4.24,4.24,0,0,1-.13,1,9.79,9.79,0,0,1-.29,1,10.25,10.25,0,0,1-1.54,2.83,11.52,11.52,0,0,1-2.32,2.27,10.89,10.89,0,0,1-2.86,1.51,9.51,9.51,0,0,1-3.17.54,10,10,0,0,1-4-.81,10.63,10.63,0,0,1-3.29-2.21,10.3,10.3,0,0,1-2.23-3.28,10,10,0,0,1-.81-4v-5.54a10.1,10.1,0,0,1,.81-4,10.27,10.27,0,0,1,2.23-3.29,10.86,10.86,0,0,1,3.29-2.23A9.84,9.84,0,0,1,746.95,971.7Z"/><path class="cls-2" d="M765,984.27l9.93-4.26v-6.65a2.2,2.2,0,0,1,.16-.86q.16-.38.89-.38h2.13a1,1,0,0,1,.76.32,1,1,0,0,1,.32.7v23.42a1,1,0,0,1-.32.7,1,1,0,0,1-.76.32h-2.13q-.73,0-.89-.38a2.21,2.21,0,0,1-.16-.86V984.68l-9.93,4.2v7.44a2.74,2.74,0,0,1-.13.86q-.13.38-.92.38h-2.16a.84.84,0,0,1-.7-.32,1.09,1.09,0,0,1-.25-.7l-.06-23.42a1,1,0,0,1,.29-.7.94.94,0,0,1,.73-.32h2.16q.8,0,.92.38a2.73,2.73,0,0,1,.13.86Z"/><path class="cls-2" d="M804.85,987.29a9.84,9.84,0,0,1-.87,4.12,10.66,10.66,0,0,1-2.39,3.36A11.55,11.55,0,0,1,789.44,997a11.5,11.5,0,0,1-3.55-2.26,10.52,10.52,0,0,1-2.4-3.36,9.83,9.83,0,0,1-.87-4.12v-5a9.69,9.69,0,0,1,.89-4.12,10.67,10.67,0,0,1,2.4-3.34,11.54,11.54,0,0,1,7.87-3.07,11.27,11.27,0,0,1,4.31.83,11.49,11.49,0,0,1,3.53,2.24,10.28,10.28,0,0,1,2.37,3.34,10,10,0,0,1,.86,4.12Zm-4.3-5a5.94,5.94,0,0,0-.54-2.51,6.75,6.75,0,0,0-3.63-3.47,6.9,6.9,0,0,0-2.64-.51,6.83,6.83,0,0,0-2.66.52,7.14,7.14,0,0,0-2.18,1.4,6.59,6.59,0,0,0-1.46,2.05,5.94,5.94,0,0,0-.54,2.51v5a5.94,5.94,0,0,0,.54,2.51,6.71,6.71,0,0,0,3.64,3.47,7,7,0,0,0,2.66.51,6.9,6.9,0,0,0,2.64-.51,6.75,6.75,0,0,0,3.63-3.47,5.94,5.94,0,0,0,.54-2.51Zm-7.89-12.41c-.47,0-.75-.1-.86-.29a.73.73,0,0,1,.1-.73l1.53-2.8a2,2,0,0,1,1.75-.8h2.16a1,1,0,0,1,.79.27q.22.27-.06.72l-2.2,2.77a2.78,2.78,0,0,1-.89.68,2.1,2.1,0,0,1-.83.17Z"/><path class="cls-2" d="M827.31,972.12a9.75,9.75,0,0,1,3.93.79,10.46,10.46,0,0,1,3.21,2.16,10.1,10.1,0,0,1,2.18,3.21,9.78,9.78,0,0,1,.8,3.91v5.28a9.78,9.78,0,0,1-.8,3.91,10.07,10.07,0,0,1-2.18,3.21,10.46,10.46,0,0,1-3.21,2.16,9.75,9.75,0,0,1-3.93.79h-9a1,1,0,0,1-1-1l-.06-23.42a1,1,0,0,1,.32-.7,1,1,0,0,1,.76-.32Zm-5.82,4.23v17h5.82a5.66,5.66,0,0,0,2.27-.46,6.07,6.07,0,0,0,3.15-3.13,5.55,5.55,0,0,0,.46-2.26V982.2a5.59,5.59,0,0,0-.46-2.24,6,6,0,0,0-3.15-3.15,5.66,5.66,0,0,0-2.27-.46Z"/><path class="cls-2" d="M860.62,996.55a.9.9,0,0,1-1,1h-2.29a.81.81,0,0,1-.68-.24,3.38,3.38,0,0,1-.33-.59l-2.9-8.37-7.83,3.47-1.75,4.9a3.11,3.11,0,0,1-.32.6c-.11.15-.35.22-.73.22h-2.2a1.08,1.08,0,0,1-.72-.29.92.92,0,0,1-.33-.73s.11-.34.32-1l.84-2.48,1.19-3.53,1.38-4.1q.72-2.12,1.43-4.2t1.32-3.8l1-2.93q.43-1.21.59-1.59a2.77,2.77,0,0,1,.35-.59.81.81,0,0,1,.67-.24h2.8a.74.74,0,0,1,.65.25,5,5,0,0,1,.33.57l8.14,23.23a1.31,1.31,0,0,1,0,.22Zm-8.75-12.41-.48-1.26a7.19,7.19,0,0,1-.25-.75,3.68,3.68,0,0,0-.16-.49,3.77,3.77,0,0,1-.16-.49l-.33-1q-.17-.54-.43-1.27l-2.58,7.22Z"/><path class="cls-2" d="M890.53,990.67a6.73,6.73,0,0,1-.54,2.69,6.92,6.92,0,0,1-3.67,3.67,6.71,6.71,0,0,1-2.69.54H872.93a.89.89,0,0,1-.72-.32,1.05,1.05,0,0,1-.27-.7l-.06-23.42a1,1,0,0,1,.3-.73,1,1,0,0,1,.75-.29h10.44a5.21,5.21,0,0,1,2.1.43,5.34,5.34,0,0,1,1.7,1.16,5.46,5.46,0,0,1,1.54,3.82,5.24,5.24,0,0,1-.57,2.64,6.2,6.2,0,0,1-2.55,2.07,6.25,6.25,0,0,1,3.77,1.84,5.94,5.94,0,0,1,1.16,3.95Zm-14.41-7.32,2.23-1.18q1.31-.7,2.55-1.43t2.19-1.38a4.63,4.63,0,0,0,1.18-1,1.49,1.49,0,0,0,.19-.83,1.23,1.23,0,0,0-.3-.83,1,1,0,0,0-.78-.35h-7.25Zm0,4.58v5.41h7.51a2.6,2.6,0,0,0,1.91-.8l.32-.38a1.68,1.68,0,0,0,.43-.92c0-.32,0-.51,0-.57s0-.33,0-.48,0-.31,0-.48,0-.3,0-.45,0-.3,0-.45a3.18,3.18,0,0,0-.7-2.37,2.27,2.27,0,0,0-1.59-.65H880Z"/><path class="cls-2" d="M913.91,996.55a.9.9,0,0,1-1,1H910.6a.81.81,0,0,1-.68-.24,3.38,3.38,0,0,1-.33-.59l-2.9-8.37-7.83,3.47-1.75,4.9a3.11,3.11,0,0,1-.32.6c-.11.15-.35.22-.73.22h-2.2a1.08,1.08,0,0,1-.72-.29.92.92,0,0,1-.33-.73s.11-.34.32-1l.84-2.48,1.19-3.53,1.38-4.1q.72-2.12,1.43-4.2t1.32-3.8l1-2.93q.43-1.21.59-1.59a2.77,2.77,0,0,1,.35-.59.81.81,0,0,1,.67-.24h2.8a.74.74,0,0,1,.65.25,5,5,0,0,1,.33.57l8.14,23.23a1.31,1.31,0,0,1,0,.22Zm-8.75-12.41-.48-1.26a7.19,7.19,0,0,1-.25-.75,3.68,3.68,0,0,0-.16-.49,3.77,3.77,0,0,1-.16-.49l-.33-1q-.17-.54-.43-1.27l-2.58,7.22Z"/><path class="cls-2" d="M928.58,972.12a4.86,4.86,0,0,1,2.05.45,5.72,5.72,0,0,1,2.88,2.89,5,5,0,0,1,.45,2.07,4.81,4.81,0,0,1-.87,3,9.23,9.23,0,0,1-2.24,2.08l1,2.61q.48,1.27,1,2.61.76,2.1,1.56,4.22t1.62,4.25a.88.88,0,0,1,0,1,1.2,1.2,0,0,1-.94.33h-2.42a.85.85,0,0,1-.7-.24,2.14,2.14,0,0,1-.32-.56L927,984.65q-1.65.86-3.18,1.69t-3.25,1.72v8.27a2.45,2.45,0,0,1-.14.86q-.14.38-.87.38h-2.26a.89.89,0,0,1-.72-.32,1.05,1.05,0,0,1-.27-.7l-.06-23.42a1.06,1.06,0,0,1,1-1Zm-8,4.23v6.94l1.48-.73q.84-.41,1.78-.91l1.86-1q.92-.49,1.69-1t1.32-.86a2.79,2.79,0,0,0,.72-.65v0a1.24,1.24,0,0,0-.16-1.53,1.21,1.21,0,0,0-.89-.35Z"/><path class="cls-2" d="M950.82,972.12a4.86,4.86,0,0,1,2.05.45,5.72,5.72,0,0,1,2.88,2.89,5,5,0,0,1,.45,2.07,4.81,4.81,0,0,1-.87,3,9.23,9.23,0,0,1-2.24,2.08l1,2.61q.48,1.27,1,2.61.76,2.1,1.56,4.22t1.62,4.25a.88.88,0,0,1,0,1,1.2,1.2,0,0,1-.94.33h-2.42a.85.85,0,0,1-.7-.24,2.14,2.14,0,0,1-.32-.56l-4.58-12.12q-1.65.86-3.18,1.69t-3.25,1.72v8.27a2.45,2.45,0,0,1-.14.86q-.14.38-.87.38h-2.26a.89.89,0,0,1-.72-.32,1.05,1.05,0,0,1-.27-.7l-.06-23.42a1.06,1.06,0,0,1,1-1Zm-8,4.23v6.94l1.48-.73q.84-.41,1.78-.91l1.86-1q.92-.49,1.69-1t1.32-.86a2.79,2.79,0,0,0,.72-.65v0a1.24,1.24,0,0,0-.16-1.53,1.21,1.21,0,0,0-.89-.35Z"/><path class="cls-2" d="M980.31,996.55a.9.9,0,0,1-1,1H977a.81.81,0,0,1-.68-.24,3.38,3.38,0,0,1-.33-.59l-2.9-8.37-7.83,3.47-1.75,4.9a3.11,3.11,0,0,1-.32.6c-.11.15-.35.22-.73.22h-2.2a1.08,1.08,0,0,1-.72-.29.92.92,0,0,1-.33-.73s.11-.34.32-1l.84-2.48,1.19-3.53,1.38-4.1q.72-2.12,1.43-4.2t1.32-3.8l1-2.93q.43-1.21.59-1.59a2.77,2.77,0,0,1,.35-.59.81.81,0,0,1,.67-.24h2.8a.74.74,0,0,1,.65.25,5,5,0,0,1,.33.57l8.14,23.23a1.31,1.31,0,0,1,0,.22Zm-8.75-12.41-.48-1.26a7.19,7.19,0,0,1-.25-.75,3.68,3.68,0,0,0-.16-.49,3.77,3.77,0,0,1-.16-.49l-.33-1q-.17-.54-.43-1.27l-2.58,7.22Z"/><path class="cls-4" d="M980.76,630.67c-8.16-38.35-23.15-71.7-36-101-25.22-57.71-55.11-99.92-99.46-134.06C687.06,273.74,522.65,461.47,510.17,471.5c-2.7-24.21-6.35-86-24.06-137.62-14.61-42.63-33.63-69.66-52.28-86.17-45.59-40.36-96.11-4.24-137.34,81.61-26.28,54.71-35.55,95.79-44.79,132.36-13.18,52.09-18.44,90.13-33.06,173.61"/><path class="cls-2" d="M288.08,590.33a3.84,3.84,0,0,1-2.87,2.05,7.71,7.71,0,0,1-4-.25,6.64,6.64,0,0,1-3.2-2.22,3.8,3.8,0,0,1-.41-3.86q.82-2.13,4.6-6.41t8.54-9q4.76-4.68,9.7-8.87a65.77,65.77,0,0,1,8.22-6.16q-6.74,3.45-9.86,4.11a15,15,0,0,1-5.26.33q-1.15-.16-2.87-2.38a33.31,33.31,0,0,1-3.29-5.26,38.17,38.17,0,0,1-2.55-6.24,12.29,12.29,0,0,1-.66-5.34q.16-1.48,3.29-4a66.4,66.4,0,0,1,8.13-5.5,110.92,110.92,0,0,1,11.75-5.92,141.06,141.06,0,0,1,14.3-5.34,120.44,120.44,0,0,1,15.61-3.78A73.89,73.89,0,0,1,353,515.23q10.35.49,16.6,3.7a26.5,26.5,0,0,1,9.37,7.39,17.53,17.53,0,0,1,3.62,8.38,13.91,13.91,0,0,1-.49,6.65,17.73,17.73,0,0,1-3.94,5.83,52.37,52.37,0,0,1-6.33,5.5,80.14,80.14,0,0,1-7.48,4.93q-3.94,2.3-7.39,4.11t-6,3q-2.55,1.15-3.53,1.48a16.83,16.83,0,0,1,8.63,1.48,21.34,21.34,0,0,1,6.24,4.52,20.5,20.5,0,0,1,3.86,5.67,13,13,0,0,1,1.31,5.09q0,5.92-4.27,11.91a57.56,57.56,0,0,1-11.5,11.67,115.3,115.3,0,0,1-16.35,10.6,154.36,154.36,0,0,1-18.65,8.54,146.5,146.5,0,0,1-18.73,5.75,73.16,73.16,0,0,1-16.27,2.14,38.24,38.24,0,0,1-17.17-3.7,40.34,40.34,0,0,1-12.65-9.61A41.78,41.78,0,0,1,244,606.84a44.27,44.27,0,0,1-2.71-15.2q0-2.47,1.64-2.71a5.09,5.09,0,0,1,3.53,1,10.86,10.86,0,0,1,3.21,3.29,5.32,5.32,0,0,1,.82,4.19,14.43,14.43,0,0,0,0,5.34,23,23,0,0,0,2.14,6.57,25.12,25.12,0,0,0,4.36,6.24,17.64,17.64,0,0,0,6.49,4.35,42.91,42.91,0,0,0,14.13,2.71,69.85,69.85,0,0,0,15.94-1.4,115.41,115.41,0,0,0,16.43-4.6,130.61,130.61,0,0,0,15.69-6.82,113.73,113.73,0,0,0,13.72-8.3,82.89,82.89,0,0,0,10.6-8.79,30.69,30.69,0,0,0,6.24-8.38q1.89-4,.58-7.15a6.76,6.76,0,0,0-3.86-3.7,16.73,16.73,0,0,0-6.16-1.07,34.09,34.09,0,0,0-7.23.82,70,70,0,0,0-7.23,2,63.46,63.46,0,0,0-6.16,2.38q-2.71,1.23-3.86,1.89a2,2,0,0,1-3-.41,9.49,9.49,0,0,1-1.72-4.19,13.45,13.45,0,0,1,.08-5.34,5.38,5.38,0,0,1,2.71-3.86q1.31-.82,6-3t10.76-5q6.08-2.87,12.9-6.33t12.41-6.82a72.86,72.86,0,0,0,9.2-6.41q3.61-3,3.62-5.34a6.33,6.33,0,0,0-3.94-5.75,24.58,24.58,0,0,0-9.86-2,74.5,74.5,0,0,0-13.72,1.07q-7.64,1.23-15.53,3.29t-15.28,4.77a127,127,0,0,0-13,5.5,36.07,36.07,0,0,0-8.54,5.59q-3,2.8-2.14,4.93.49,1.15,2.88.9a29.64,29.64,0,0,0,5.75-1.31q3.37-1.07,7.39-2.71t7.72-3.2q3.7-1.56,6.74-2.71a37.55,37.55,0,0,1,4.52-1.48,10.35,10.35,0,0,1,4.44.33,6.52,6.52,0,0,1,3.37,2,3,3,0,0,1,.25,3.29q-.82,2-4.6,4.11a122.3,122.3,0,0,0-10.27,7.31q-6.49,5-13.15,11t-12.32,12.08A45.61,45.61,0,0,0,288.08,590.33Z"/><path class="cls-2" d="M425.95,576.19a15.18,15.18,0,0,1,3.94-2.87,8.29,8.29,0,0,1,3.45-1.07c.88,0,1.37.3,1.48.9s-.55,1.62-2,3q-1.48,1.48-4.35,4.85t-6.57,7.56q-3.7,4.19-7.89,8.79t-8.22,8.38a64.16,64.16,0,0,1-7.64,6.24q-3.62,2.47-5.92,2.46a4.66,4.66,0,0,1-3.7-1.89A15.36,15.36,0,0,1,386,608a27.8,27.8,0,0,1-1.4-5.5,33.43,33.43,0,0,1-.41-4.76,20.42,20.42,0,0,1,2.55-8.38,85.73,85.73,0,0,1,5.75-9.45q3.37-4.84,7.07-9.86a111.6,111.6,0,0,0,6.49-9.78,24.66,24.66,0,0,0-4.93.49l-.66.16q-.82,1.32-5.42,7.64a137.2,137.2,0,0,1-13.64,15.36,51.74,51.74,0,0,1-7.89,6.74,21.17,21.17,0,0,1-5,2.63q-1.73.49-1.89-.41t1.48-2.55a148.09,148.09,0,0,0,17.17-19.88q6-8.71,6.33-12.49A13.24,13.24,0,0,1,390,555.9a11.68,11.68,0,0,1-1.31-2.63,12.72,12.72,0,0,1-.66-2.79,6.42,6.42,0,0,1,.16-2.55,6.9,6.9,0,0,1,2.14-3.2,8.83,8.83,0,0,1,3.12-1.73,6.86,6.86,0,0,1,3.12-.25,3,3,0,0,1,2.14,1.23q.65,1,1.56,2.3a23.66,23.66,0,0,1,1.64,2.79,12.64,12.64,0,0,1,1.07,3,5.73,5.73,0,0,1-.16,3,20.17,20.17,0,0,0,3.37-.82,11.62,11.62,0,0,0,2.71-1.4,28.49,28.49,0,0,0,2.79-2.22q1.48-1.31,3.45-3.29a2.62,2.62,0,0,1,3-.66,5.51,5.51,0,0,1,2.46,2.3,10.3,10.3,0,0,1,1.31,3.7,4.78,4.78,0,0,1-.49,3.37q-.82,1.32-3.53,4.85t-6.24,8.38l-7.48,10.27q-3.94,5.42-7.15,10.27a73.82,73.82,0,0,0-5,8.63q-1.81,3.78-1.31,5.09.33,1,3.37-.66a64.66,64.66,0,0,0,7.89-5.34q4.85-3.7,11.09-9.2T425.95,576.19Z"/><path class="cls-2" d="M425.95,604q1.48,1.64,5.18.9a40.6,40.6,0,0,0,8.46-2.87,99.89,99.89,0,0,0,10.27-5.42q5.5-3.29,10.68-6.9t9.61-7.15a87,87,0,0,0,7.23-6.33,18.4,18.4,0,0,1,4.35-3.37,6.76,6.76,0,0,1,3.29-1q1.23.08,1.23,1.23t-2,3.12q-6.41,6.41-13.72,13.15T456.1,601.66a100.11,100.11,0,0,1-13.64,9.12q-6.49,3.54-11.26,3.53a14.35,14.35,0,0,1-5.09-1.07A15.05,15.05,0,0,1,421,610a18,18,0,0,1-3.86-5.75,20.85,20.85,0,0,1-1.56-8.46q0-3.28,2.71-8.22a76.48,76.48,0,0,1,7-10.35,148.34,148.34,0,0,1,20-20.62,73.05,73.05,0,0,1,9.78-7.07q4.6-2.71,7.39-2.71a9.72,9.72,0,0,1,2.88.66,12.24,12.24,0,0,1,3.7,2.14,11.85,11.85,0,0,1,3,3.94,10.74,10.74,0,0,1,.74,6.24,19.6,19.6,0,0,1-3.29,8.05,54.13,54.13,0,0,1-6.66,8.22,86.39,86.39,0,0,1-7.89,7.15,46.85,46.85,0,0,1-6.82,4.68q-4.77,2.79-9.12,1.72a13.82,13.82,0,0,1-7-3.86,54.54,54.54,0,0,0-6.24,11.09Q423.81,601.83,425.95,604Zm36-45q-1.32-.82-4.35.82a39.14,39.14,0,0,0-6.82,4.93q-3.78,3.29-8,7.72a111.65,111.65,0,0,0-7.81,9.2,7.45,7.45,0,0,0,5.67.08,25.35,25.35,0,0,0,6.49-3.37,47.45,47.45,0,0,0,6.33-5.34,56.49,56.49,0,0,0,5.26-6,24.42,24.42,0,0,0,3.12-5.18Q462.75,559.6,461.93,558.94Z"/><path class="cls-2" d="M512.22,562.23a7.83,7.83,0,0,0,2-5.18q-.17-2.38-2.46-2.05-3.62.66-7.72,4.35a69,69,0,0,0-7.89,8.46,107,107,0,0,0-6.82,9.61,66.75,66.75,0,0,0-4.35,7.81,28.33,28.33,0,0,0-2.55,9.7q-.25,4.44,1.56,6.74,2.13,2.63,7.39.74a60.88,60.88,0,0,0,11.83-6.08,140.3,140.3,0,0,0,13.31-9.7q6.74-5.5,11.67-10.43a24.12,24.12,0,0,1,5.18-4.11,8.55,8.55,0,0,1,3.7-1.31q1.31,0,1,1.4t-3,4L524,587.29q-6.33,6.33-12.74,12.08t-12.16,10q-5.75,4.27-9.37,4.93a11,11,0,0,1-7.15-1.15,18.4,18.4,0,0,1-6.16-5.18,24.08,24.08,0,0,1-4-8.13,24.53,24.53,0,0,1-.74-10,23,23,0,0,1,2.63-8.13,75.89,75.89,0,0,1,5.67-9.28,97.56,97.56,0,0,1,7.56-9.37,102.59,102.59,0,0,1,8.54-8.38,66,66,0,0,1,8.63-6.41,24,24,0,0,1,7.56-3.29,9.13,9.13,0,0,1,3.45,0,12,12,0,0,1,3.78,1.31,8.72,8.72,0,0,1,3,2.79,7.4,7.4,0,0,1,1.23,4.27,22.36,22.36,0,0,1-2.05,8.22,77.46,77.46,0,0,1-4.76,9.53,74.35,74.35,0,0,1-5.34,8q-2.63,3.37-3.78,3.53a2.3,2.3,0,0,1-2.14-1.07,12.74,12.74,0,0,1-1.73-3A11.65,11.65,0,0,1,503,575a5.16,5.16,0,0,1,.49-3,15.58,15.58,0,0,1,1.81-2.46q1.15-1.31,2.46-2.63l2.46-2.46Q511.39,563.22,512.22,562.23Z"/><path class="cls-2" d="M568.91,515.72a4.29,4.29,0,0,1,3.37-.33,10,10,0,0,1,3.7,1.73,5.18,5.18,0,0,1,2.05,3,3.12,3.12,0,0,1-1.4,3.2,47.74,47.74,0,0,0-5.34,5.67q-3.37,4-7.48,9.45t-8.71,11.67q-4.6,6.25-8.79,12.41t-7.64,11.75q-3.45,5.59-5.59,9.37a43.84,43.84,0,0,0,3.37-3.37q2.71-2.87,6.41-6.9t8.13-8.54q4.44-4.52,8.54-8.54t7.48-6.82a17.53,17.53,0,0,1,5-3.29,7.93,7.93,0,0,1,5,.33,12.44,12.44,0,0,1,4.35,2.79,10.56,10.56,0,0,1,2.55,3.86,3.49,3.49,0,0,1-.41,3.53q-.66.82-3.21,4.19T574.49,569q-3.29,4.77-6.82,10.35t-6.41,10.6a80.49,80.49,0,0,0-4.52,9q-1.65,3.94-1,5.59.16.66,2.38-.74a62.55,62.55,0,0,0,5.42-3.94q3.2-2.55,7.07-6t7.56-6.82q3.7-3.37,6.74-6.24t4.68-4.52a18.89,18.89,0,0,1,4.77-3.61,8.86,8.86,0,0,1,3.53-1.15c.82,0,1.18.41,1.07,1.23s-.93,2-2.46,3.53q-1.48,1.65-4.52,4.93l-6.9,7.48-8,8.63q-4.11,4.44-8,8.13t-6.9,6.16q-3,2.47-4.52,2.79a7.42,7.42,0,0,1-4.68-.58,14.53,14.53,0,0,1-4.35-3,14.82,14.82,0,0,1-3.12-4.6,11.62,11.62,0,0,1-1-5.42q.16-3.94,3.37-9.86A116.66,116.66,0,0,1,555.35,579q4.19-5.92,8.3-11t6.24-7.4a27,27,0,0,0-6.08,3.94q-3.94,3.12-9,7.81T544.34,582.6q-5.51,5.59-10.68,11.42T524,605.44a115.65,115.65,0,0,0-7.23,10,2,2,0,0,1-2.14,1.07,5.16,5.16,0,0,1-2.55-1.4,8.21,8.21,0,0,1-2-3,5.49,5.49,0,0,1-.25-3.62,44.42,44.42,0,0,1,2.38-4.85q2.22-4.19,5.83-10.52t8.3-14.21q4.68-7.89,9.7-16.1t10.11-16.19q5.09-8,9.53-14.46t7.89-10.93Q567.1,516.87,568.91,515.72Z"/><path class="cls-2" d="M630.2,550.72q4.27-1.64,7,.74a10.19,10.19,0,0,1,3.37,6,132.94,132.94,0,0,0,16.84-1.56,38,38,0,0,0,9.28-2.71,15.62,15.62,0,0,1,3-.9q1.39-.25,1.81.25t-.41,1.73a16.45,16.45,0,0,1-3.78,3.37,23.1,23.1,0,0,1-5.34,3,58.23,58.23,0,0,1-6.82,2.3,76.17,76.17,0,0,1-7.56,1.64,45.93,45.93,0,0,1-7.56.66,47.74,47.74,0,0,1-3.53,10.68,84.32,84.32,0,0,1-6.08,11,119.07,119.07,0,0,1-7.64,10.43,76.1,76.1,0,0,1-8.38,8.79,45.29,45.29,0,0,1-8.38,6,15.88,15.88,0,0,1-7.39,2.22,11.79,11.79,0,0,1-7.15-2.22,15.47,15.47,0,0,1-4.77-5.67,24.4,24.4,0,0,1-2.3-7.64,23.8,23.8,0,0,1,.25-8.13,41,41,0,0,1,4.85-12.32,104.39,104.39,0,0,1,8.79-13.23,96.9,96.9,0,0,1,10.11-11.17q5.18-4.84,9-6.16,2-.65,3.7-1.15a9,9,0,0,1,3.37-.33,6.3,6.3,0,0,1,3,1.15,10.54,10.54,0,0,1,2.71,3.12Zm-38.94,52.91q1.31,2.47,4.27,1.64a20.92,20.92,0,0,0,6.74-3.7,72.44,72.44,0,0,0,8.13-7.39q4.35-4.52,8.46-9.7a127.52,127.52,0,0,0,7.48-10.43,61,61,0,0,0,5.18-9.69q-5.26-1.15-6.65-3.86a5,5,0,0,1-.08-5,47.71,47.71,0,0,0-7.64,5.67q-4.19,3.7-8.38,8.22a110.82,110.82,0,0,0-7.89,9.53,93.57,93.57,0,0,0-6.33,9.7,35.51,35.51,0,0,0-3.62,8.63Q589.94,601.17,591.25,603.64Zm30.24-71.15a52.49,52.49,0,0,1,5.09-3.61q3.78-2.47,8.22-5t8.46-4.44q4-1.89,5.67-1.89a5.59,5.59,0,0,1,3.7,1.73,16.93,16.93,0,0,1,3.12,3.78,8.22,8.22,0,0,1,1.31,3.7q.08,1.64-1.89,1.48a19.9,19.9,0,0,0-5.92.9q-4.11,1.07-9.2,2.88t-10.52,4.27a103.2,103.2,0,0,0-9.86,5.09q-1.65,1-2.22.25a2.6,2.6,0,0,1-.25-2.22,12.44,12.44,0,0,1,1.48-3.45A14.22,14.22,0,0,1,621.49,532.48Z"/><rect class="cls-3" x="208.14" y="947.24" width="772.83" height="12.24"/></svg>